<svg width="14" height="15" viewBox="0 0 14 15" fill="none" xmlns="http://www.w3.org/2000/svg">
<g id="copyright 1" clip-path="url(#clip0_1_660)">
<path id="Vector" d="M7 0.5C3.13396 0.5 0 3.63396 0 7.5C0 11.366 3.13396 14.5 7 14.5C10.866 14.5 14 11.366 14 7.5C13.9957 3.63577 10.8642 0.504272 7 0.5ZM7 13.8001C3.52061 13.8001 0.700043 10.9794 0.700043 7.5C0.700043 4.02061 3.52061 1.20004 7 1.20004C10.4794 1.20004 13.3 4.02061 13.3 7.5C13.296 10.9778 10.4778 13.796 7 13.8001Z" fill="white"/>
<path id="Vector_2" d="M7 4.70008C7.81764 4.70414 8.59234 5.06666 9.11946 5.69161C9.24507 5.83859 9.46596 5.8561 9.61303 5.7306C9.76001 5.6051 9.77752 5.3841 9.65202 5.23702C8.40211 3.76249 6.19357 3.58027 4.71904 4.83007C3.2444 6.07987 3.06218 8.28852 4.31209 9.76306C5.56189 11.2376 7.77043 11.4198 9.24507 10.17C9.39161 10.0458 9.52769 9.90971 9.65202 9.76306C9.77752 9.61598 9.76001 9.39509 9.61303 9.26948C9.46596 9.14398 9.24507 9.16149 9.11946 9.30847C8.11757 10.4822 6.35379 10.6215 5.18004 9.6195C4.00639 8.61761 3.86711 6.85383 4.869 5.68008C5.40124 5.05673 6.18033 4.69837 7 4.70008Z" fill="white"/>
</g>
<defs>
<clipPath id="clip0_1_660">
<rect width="14" height="14" fill="white" transform="translate(0 0.5)"/>
</clipPath>
</defs>
</svg>
