<svg width="384" height="442" viewBox="0 0 384 442" fill="none" xmlns="http://www.w3.org/2000/svg">
<!-- <rect width="384" height="442" rx="16" fill="white" fill-opacity="0.05"/> -->
<!-- <path d="M21.904 33.16C24.688 33.16 26.768 31.608 26.768 29.176V28.984H25.536V29.176C25.536 31 24.272 32.056 21.92 32.056C19.248 32.056 17.76 30.552 17.76 27.64C17.76 24.728 19.248 23.224 21.92 23.224C24.272 23.224 25.536 24.28 25.536 26.104V26.296H26.768V26.104C26.768 23.672 24.672 22.12 21.904 22.12C18.768 22.12 16.56 24.296 16.56 27.64C16.56 30.984 18.768 33.16 21.904 33.16ZM29.4241 33V28.712C29.4241 26.936 30.1281 25.928 31.7281 25.928C33.1041 25.928 33.6641 26.584 33.6641 27.928V28.536H34.8001V27.752C34.8001 26.28 34.0001 24.936 32.1761 24.936C30.5281 24.936 29.6321 25.992 29.3921 27.256H29.3121V25.096H28.2881V33H29.4241ZM39.8763 33.16C42.0843 33.16 43.7163 32.024 43.7163 30.376V30.264H42.5803V30.376C42.5803 31.528 41.7163 32.216 39.8602 32.216C37.7643 32.216 36.8523 31.144 36.7883 29.368H43.7483C43.7963 29.16 43.8283 28.92 43.8283 28.632C43.8283 26.28 42.1803 24.936 39.8602 24.936C37.3163 24.936 35.7163 26.648 35.7163 29.048C35.7163 31.56 37.3323 33.16 39.8763 33.16ZM39.8443 25.88C41.7003 25.88 42.7563 26.76 42.7563 28.424C42.7563 28.504 42.7563 28.584 42.7563 28.664H36.7883C36.8683 26.936 37.7963 25.88 39.8443 25.88ZM47.527 33.16C49.367 33.16 50.759 32.328 51.223 30.872H51.303V33H52.327V28.056C52.327 26.312 51.303 24.936 48.903 24.936C46.471 24.936 45.095 26.296 45.095 27.96V28.024H46.231V27.96C46.231 26.568 47.127 25.96 48.823 25.96C50.551 25.96 51.223 26.568 51.223 28.104V28.712L47.463 29.128C45.991 29.288 44.919 29.848 44.919 31.144C44.919 32.424 45.975 33.16 47.527 33.16ZM46.055 31.064C46.055 30.248 46.631 29.96 47.815 29.848L51.223 29.464V29.528C51.223 31.432 49.703 32.28 47.783 32.28C46.583 32.28 46.055 31.864 46.055 31.064ZM59.0424 33V31.96H57.6024C56.4504 31.96 55.9064 31.656 55.9064 30.552V26.072H59.0424V25.096H55.9064V23.208H54.7544V25.096H53.3464V26.072H54.7544V30.488C54.7544 32.344 55.7624 33 57.3304 33H59.0424ZM64.0481 33.16C66.2561 33.16 67.8881 32.024 67.8881 30.376V30.264H66.7521V30.376C66.7521 31.528 65.8881 32.216 64.0321 32.216C61.9361 32.216 61.0241 31.144 60.9601 29.368H67.9201C67.9681 29.16 68.0001 28.92 68.0001 28.632C68.0001 26.28 66.3521 24.936 64.0321 24.936C61.4881 24.936 59.8881 26.648 59.8881 29.048C59.8881 31.56 61.5041 33.16 64.0481 33.16ZM64.0161 25.88C65.8721 25.88 66.9281 26.76 66.9281 28.424C66.9281 28.504 66.9281 28.584 66.9281 28.664H60.9601C61.0401 26.936 61.9681 25.88 64.0161 25.88ZM72.9149 33.16C74.6589 33.16 75.9389 32.248 76.3229 30.664H76.3869V33H77.4269V22.28H76.2909V27.304H76.2109C75.8589 25.944 74.6909 24.936 72.8189 24.936C70.3869 24.936 68.9789 26.648 68.9789 29.048C68.9789 31.448 70.3869 33.16 72.9149 33.16ZM70.1309 29.048C70.1309 26.76 71.3629 25.992 73.1709 25.992C75.1229 25.992 76.2909 27.08 76.2909 29.032V29.176C76.2909 31.048 75.0589 32.12 73.2029 32.12C71.3469 32.12 70.1309 31.336 70.1309 29.048ZM83.2965 33V30.664H83.3765C83.7445 32.248 85.0085 33.16 86.7685 33.16C89.3445 33.16 90.7045 31.448 90.7045 29.048C90.7045 26.648 89.3445 24.936 86.8645 24.936C84.9605 24.936 83.8245 25.944 83.4885 27.304H83.4085V22.28H82.2725V33H83.2965ZM83.4085 29.176V29.032C83.4085 27.08 84.5285 25.992 86.5285 25.992C88.3525 25.992 89.5525 26.76 89.5525 29.048C89.5525 31.336 88.3845 32.12 86.4965 32.12C84.5925 32.12 83.4085 31.048 83.4085 29.176ZM93.1406 35.72C94.4526 35.72 95.1886 35.32 95.7646 34.104L100.053 25.096H98.8046L96.6126 29.784L95.7646 31.736H95.6686L94.7886 29.8L92.4686 25.096H91.2206L95.1406 32.984L94.7566 33.784C94.4526 34.44 94.1486 34.68 93.3486 34.68H92.1486V35.72H93.1406Z" fill="#B4C7CE"/> -->
<!-- <circle cx="28" cy="56" r="12" fill="#D9D9D9"/> -->
<!-- <circle cx="28" cy="56" r="12"/> -->
<!-- <path d="M53.008 61.16C56.496 61.16 57.808 59.512 57.808 56.76V50.28H55.264V56.76C55.264 58.264 54.896 58.824 53.008 58.824C51.104 58.824 50.784 58.232 50.784 56.648V56.184H48.24V56.648C48.24 59.48 49.536 61.16 53.008 61.16ZM61.479 61.16C63.255 61.16 64.375 60.408 64.743 59.16H64.871V61H67.111V56.296C67.111 54.2 65.847 52.824 63.175 52.824C60.535 52.824 58.871 54.2 58.871 56.184V56.232H61.287V56.168C61.287 55.256 61.783 54.936 62.999 54.936C64.279 54.936 64.743 55.224 64.743 56.264V56.568L61.303 56.92C59.591 57.096 58.711 57.832 58.711 59.016C58.711 60.36 59.751 61.16 61.479 61.16ZM61.127 58.856C61.127 58.472 61.383 58.312 61.959 58.264L64.743 57.944C64.679 59.08 63.799 59.464 62.167 59.464C61.463 59.464 61.127 59.288 61.127 58.856ZM70.7275 61V56.952C70.7275 55.56 71.1435 54.984 72.5995 54.984C73.9755 54.984 74.4395 55.48 74.4395 56.808V61H76.8395V56.952C76.8395 55.56 77.2555 54.984 78.7115 54.984C80.0875 54.984 80.5515 55.48 80.5515 56.808V61H82.9515V56.008C82.9515 54.184 81.9435 52.824 79.8795 52.824C77.8155 52.824 76.9995 54.088 76.8075 55.448H76.6635C76.4875 53.96 75.5435 52.824 73.6875 52.824C71.6715 52.824 70.8715 54.072 70.6795 55.416H70.5515V52.984H68.3275V61H70.7275ZM88.4273 61.16C90.9713 61.16 92.6673 59.944 92.6673 58.2V58.024H90.2673V58.184C90.2673 58.872 89.7713 59.24 88.3473 59.24C86.7953 59.24 86.2193 58.712 86.1553 57.48H92.6833C92.7153 57.208 92.7473 57 92.7473 56.712C92.7473 54.2 91.0033 52.824 88.3793 52.824C85.7393 52.824 83.9313 54.44 83.9313 57C83.9313 59.848 85.7553 61.16 88.4273 61.16ZM88.3313 54.696C89.7393 54.696 90.3793 55.16 90.4433 56.216H86.1873C86.2993 55.176 86.9073 54.696 88.3313 54.696ZM97.813 61.16C100.293 61.16 101.781 60.168 101.781 58.664C101.781 57.336 100.981 56.616 98.837 56.376L97.125 56.168C96.069 56.04 95.845 55.864 95.845 55.448C95.845 54.936 96.149 54.728 97.349 54.728C98.821 54.728 99.141 55.064 99.141 55.72V55.816H101.541V55.768C101.541 53.816 100.053 52.824 97.429 52.824C94.677 52.824 93.477 53.944 93.477 55.352C93.477 56.696 94.373 57.416 95.973 57.592L98.229 57.864C99.173 57.992 99.413 58.12 99.413 58.568C99.413 59.048 99.109 59.256 97.829 59.256C96.469 59.256 96.021 59.064 96.021 58.344V58.2H93.621V58.248C93.621 60.104 95.109 61.16 97.813 61.16ZM110.85 61L112.482 55.64L113.234 52.552H113.41L114.162 55.64L115.762 61H119.33L121.874 50.28H119.25L117.954 56.36L117.586 58.712H117.41L116.914 56.36L115.138 50.28H111.57L109.778 56.36L109.282 58.712H109.106L108.738 56.36L107.442 50.28H104.754L107.282 61H110.85ZM125.167 61.16C126.943 61.16 128.063 60.408 128.431 59.16H128.559V61H130.799V56.296C130.799 54.2 129.535 52.824 126.863 52.824C124.223 52.824 122.559 54.2 122.559 56.184V56.232H124.975V56.168C124.975 55.256 125.471 54.936 126.687 54.936C127.967 54.936 128.431 55.224 128.431 56.264V56.568L124.991 56.92C123.279 57.096 122.399 57.832 122.399 59.016C122.399 60.36 123.439 61.16 125.167 61.16ZM124.815 58.856C124.815 58.472 125.071 58.312 125.647 58.264L128.431 57.944C128.367 59.08 127.487 59.464 125.855 59.464C125.151 59.464 124.815 59.288 124.815 58.856ZM137.663 61V58.84H136.223C135.375 58.84 135.071 58.632 135.071 57.832V54.968H137.663V52.984H135.071V51.432H132.671V52.984H131.407V54.968H132.671V58.104C132.671 60.12 133.807 61 135.679 61H137.663ZM142.61 61.16C145.09 61.16 146.578 60.168 146.578 58.664C146.578 57.336 145.778 56.616 143.634 56.376L141.922 56.168C140.866 56.04 140.642 55.864 140.642 55.448C140.642 54.936 140.946 54.728 142.146 54.728C143.618 54.728 143.938 55.064 143.938 55.72V55.816H146.338V55.768C146.338 53.816 144.85 52.824 142.226 52.824C139.474 52.824 138.274 53.944 138.274 55.352C138.274 56.696 139.17 57.416 140.77 57.592L143.026 57.864C143.97 57.992 144.21 58.12 144.21 58.568C144.21 59.048 143.906 59.256 142.626 59.256C141.266 59.256 140.818 59.064 140.818 58.344V58.2H138.418V58.248C138.418 60.104 139.906 61.16 142.61 61.16ZM151.818 61.16C154.554 61.16 156.394 59.528 156.394 57C156.394 54.44 154.554 52.824 151.818 52.824C149.082 52.824 147.242 54.44 147.242 57C147.242 59.528 149.082 61.16 151.818 61.16ZM151.818 59.032C150.186 59.032 149.626 58.408 149.626 57C149.626 55.592 150.186 54.936 151.818 54.936C153.434 54.936 154.01 55.592 154.01 57C154.01 58.408 153.434 59.032 151.818 59.032ZM159.774 61V56.952C159.774 55.592 160.318 54.984 161.838 54.984C163.31 54.984 163.838 55.528 163.838 56.808V61H166.238V56.008C166.238 54.232 165.198 52.824 163.006 52.824C160.91 52.824 159.95 54.104 159.742 55.448H159.598V52.984H157.374V61H159.774Z" fill="#15BFFD"/> -->
<!-- <rect x="16" y="80" width="168" height="272" rx="8"/> -->
<!-- <rect x="200" y="80" width="168" height="128" rx="8"/> -->
<!-- <rect x="200" y="224" width="168" height="128" rx="8"/> -->
<!-- <path d="M20.56 391V386.56H25.36C29.08 386.56 31.48 384.424 31.48 380.728C31.48 377.032 29.08 374.92 25.36 374.92H16.96V391H20.56ZM24.976 378.16C26.968 378.16 27.904 378.76 27.904 380.728C27.904 382.744 26.968 383.32 24.976 383.32H20.56V378.16H24.976ZM37.7249 391.24C40.8929 391.24 42.3569 389.344 42.6689 387.328H42.8609V391H46.2209V378.976H42.6209V385.072C42.6209 387.112 41.7809 388.024 39.4289 388.024C37.1489 388.024 36.3329 387.208 36.3329 385.264V378.976H32.7329V386.464C32.7329 389.152 34.3409 391.24 37.7249 391.24ZM51.6616 391V384.928C51.6616 382.888 52.4776 381.976 54.7576 381.976C56.9656 381.976 57.7576 382.792 57.7576 384.712V391H61.3576V383.512C61.3576 380.848 59.7976 378.736 56.5096 378.736C53.3656 378.736 51.9256 380.656 51.6136 382.672H51.3976V378.976H48.0616V391H51.6616ZM66.7788 391V386.656H69.5388L72.5388 391H76.7868L72.4668 384.784L76.8588 378.976H72.5868L69.5148 383.44H66.7788V374.92H63.1788V391H66.7788ZM84.3886 391L85.9246 387.448H93.9646L95.4766 391H99.6046L92.5246 374.92H87.3886L80.3566 391H84.3886ZM88.8286 380.704L89.8126 378.208H90.0766L91.0606 380.704L92.5726 384.208H87.3166L88.8286 380.704ZM104.044 391V384.04C104.044 382.528 104.62 381.784 106.228 381.784C107.692 381.784 108.22 382.36 108.22 383.68V384.928H111.82V382.936C111.82 380.584 110.716 378.736 108.028 378.736C105.604 378.736 104.332 380.224 103.996 382.168H103.78V378.976H100.444V391H104.044ZM121.596 391V387.76H119.436C118.164 387.76 117.708 387.448 117.708 386.248V381.952H121.596V378.976H117.708V376.648H114.108V378.976H112.212V381.952H114.108V386.656C114.108 389.68 115.812 391 118.62 391H121.596ZM134.88 391.24C139.896 391.24 143.088 388.744 143.088 384.664V384.304H139.08V384.664C139.08 386.776 137.88 387.784 134.952 387.784C131.424 387.784 130.104 386.536 130.104 382.96C130.104 379.384 131.424 378.136 134.952 378.136C137.88 378.136 139.08 379.144 139.08 381.256V381.616H143.088V381.256C143.088 377.176 139.872 374.68 134.88 374.68C129.576 374.68 126.288 377.944 126.288 382.96C126.288 387.976 129.576 391.24 134.88 391.24ZM151.056 391.24C155.16 391.24 157.92 388.792 157.92 385C157.92 381.16 155.16 378.736 151.056 378.736C146.952 378.736 144.192 381.16 144.192 385C144.192 388.792 146.952 391.24 151.056 391.24ZM151.056 388.048C148.608 388.048 147.768 387.112 147.768 385C147.768 382.888 148.608 381.904 151.056 381.904C153.48 381.904 154.344 382.888 154.344 385C154.344 387.112 153.48 388.048 151.056 388.048ZM162.99 391V374.92H159.39V391H162.99ZM168.474 391V374.92H164.874V391H168.474ZM176.742 391.24C180.558 391.24 183.102 389.416 183.102 386.8V386.536H179.502V386.776C179.502 387.808 178.758 388.36 176.622 388.36C174.294 388.36 173.43 387.568 173.334 385.72H183.126C183.174 385.312 183.222 385 183.222 384.568C183.222 380.8 180.606 378.736 176.67 378.736C172.71 378.736 169.998 381.16 169.998 385C169.998 389.272 172.734 391.24 176.742 391.24ZM176.598 381.544C178.71 381.544 179.67 382.24 179.766 383.824H173.382C173.55 382.264 174.462 381.544 176.598 381.544ZM191.157 391.24C195.021 391.24 197.661 389.152 197.661 386.056V385.72H194.085V385.912C194.085 387.448 192.957 388 191.085 388C188.949 388 187.965 387.208 187.965 385C187.965 382.768 188.949 381.976 191.085 381.976C192.957 381.976 194.085 382.528 194.085 384.064V384.256H197.661V383.92C197.661 380.8 195.021 378.736 191.157 378.736C187.029 378.736 184.389 381.16 184.389 385C184.389 388.792 187.029 391.24 191.157 391.24ZM207.682 391V387.76H205.522C204.25 387.76 203.794 387.448 203.794 386.248V381.952H207.682V378.976H203.794V376.648H200.194V378.976H198.298V381.952H200.194V386.656C200.194 389.68 201.898 391 204.706 391H207.682ZM212.63 377.752V374.92H209.03V377.752H212.63ZM212.63 391V378.976H209.03V391H212.63ZM220.923 391.24C225.027 391.24 227.787 388.792 227.787 385C227.787 381.16 225.027 378.736 220.923 378.736C216.819 378.736 214.059 381.16 214.059 385C214.059 388.792 216.819 391.24 220.923 391.24ZM220.923 388.048C218.475 388.048 217.635 387.112 217.635 385C217.635 382.888 218.475 381.904 220.923 381.904C223.347 381.904 224.211 382.888 224.211 385C224.211 387.112 223.347 388.048 220.923 388.048ZM232.857 391V384.928C232.857 382.888 233.673 381.976 235.953 381.976C238.161 381.976 238.953 382.792 238.953 384.712V391H242.553V383.512C242.553 380.848 240.993 378.736 237.705 378.736C234.561 378.736 233.121 380.656 232.809 382.672H232.593V378.976H229.257V391H232.857Z" fill="white"/> -->
<!-- <path d="M21.904 419.16C24.688 419.16 26.768 417.608 26.768 415.176V414.984H25.536V415.176C25.536 417 24.272 418.056 21.92 418.056C19.248 418.056 17.76 416.552 17.76 413.64C17.76 410.728 19.248 409.224 21.92 409.224C24.272 409.224 25.536 410.28 25.536 412.104V412.296H26.768V412.104C26.768 409.672 24.672 408.12 21.904 408.12C18.768 408.12 16.56 410.296 16.56 413.64C16.56 416.984 18.768 419.16 21.904 419.16ZM29.4241 419V414.712C29.4241 412.936 30.1281 411.928 31.7281 411.928C33.1041 411.928 33.6641 412.584 33.6641 413.928V414.536H34.8001V413.752C34.8001 412.28 34.0001 410.936 32.1761 410.936C30.5281 410.936 29.6321 411.992 29.3921 413.256H29.3121V411.096H28.2881V419H29.4241ZM39.8763 419.16C42.0843 419.16 43.7163 418.024 43.7163 416.376V416.264H42.5803V416.376C42.5803 417.528 41.7163 418.216 39.8602 418.216C37.7643 418.216 36.8523 417.144 36.7883 415.368H43.7483C43.7963 415.16 43.8283 414.92 43.8283 414.632C43.8283 412.28 42.1803 410.936 39.8602 410.936C37.3163 410.936 35.7163 412.648 35.7163 415.048C35.7163 417.56 37.3323 419.16 39.8763 419.16ZM39.8443 411.88C41.7003 411.88 42.7563 412.76 42.7563 414.424C42.7563 414.504 42.7563 414.584 42.7563 414.664H36.7883C36.8683 412.936 37.7963 411.88 39.8443 411.88ZM47.527 419.16C49.367 419.16 50.759 418.328 51.223 416.872H51.303V419H52.327V414.056C52.327 412.312 51.303 410.936 48.903 410.936C46.471 410.936 45.095 412.296 45.095 413.96V414.024H46.231V413.96C46.231 412.568 47.127 411.96 48.823 411.96C50.551 411.96 51.223 412.568 51.223 414.104V414.712L47.463 415.128C45.991 415.288 44.919 415.848 44.919 417.144C44.919 418.424 45.975 419.16 47.527 419.16ZM46.055 417.064C46.055 416.248 46.631 415.96 47.815 415.848L51.223 415.464V415.528C51.223 417.432 49.703 418.28 47.783 418.28C46.583 418.28 46.055 417.864 46.055 417.064ZM59.0424 419V417.96H57.6024C56.4504 417.96 55.9064 417.656 55.9064 416.552V412.072H59.0424V411.096H55.9064V409.208H54.7544V411.096H53.3464V412.072H54.7544V416.488C54.7544 418.344 55.7624 419 57.3304 419H59.0424ZM64.0481 419.16C66.2561 419.16 67.8881 418.024 67.8881 416.376V416.264H66.7521V416.376C66.7521 417.528 65.8881 418.216 64.0321 418.216C61.9361 418.216 61.0241 417.144 60.9601 415.368H67.9201C67.9681 415.16 68.0001 414.92 68.0001 414.632C68.0001 412.28 66.3521 410.936 64.0321 410.936C61.4881 410.936 59.8881 412.648 59.8881 415.048C59.8881 417.56 61.5041 419.16 64.0481 419.16ZM64.0161 411.88C65.8721 411.88 66.9281 412.76 66.9281 414.424C66.9281 414.504 66.9281 414.584 66.9281 414.664H60.9601C61.0401 412.936 61.9681 411.88 64.0161 411.88ZM72.9149 419.16C74.6589 419.16 75.9389 418.248 76.3229 416.664H76.3869V419H77.4269V408.28H76.2909V413.304H76.2109C75.8589 411.944 74.6909 410.936 72.8189 410.936C70.3869 410.936 68.9789 412.648 68.9789 415.048C68.9789 417.448 70.3869 419.16 72.9149 419.16ZM70.1309 415.048C70.1309 412.76 71.3629 411.992 73.1709 411.992C75.1229 411.992 76.2909 413.08 76.2909 415.032V415.176C76.2909 417.048 75.0589 418.12 73.2029 418.12C71.3469 418.12 70.1309 417.336 70.1309 415.048ZM83.2965 419V416.664H83.3765C83.7445 418.248 85.0085 419.16 86.7685 419.16C89.3445 419.16 90.7045 417.448 90.7045 415.048C90.7045 412.648 89.3445 410.936 86.8645 410.936C84.9605 410.936 83.8245 411.944 83.4885 413.304H83.4085V408.28H82.2725V419H83.2965ZM83.4085 415.176V415.032C83.4085 413.08 84.5285 411.992 86.5285 411.992C88.3525 411.992 89.5525 412.76 89.5525 415.048C89.5525 417.336 88.3845 418.12 86.4965 418.12C84.5925 418.12 83.4085 417.048 83.4085 415.176ZM93.1406 421.72C94.4526 421.72 95.1886 421.32 95.7646 420.104L100.053 411.096H98.8046L96.6126 415.784L95.7646 417.736H95.6686L94.7886 415.8L92.4686 411.096H91.2206L95.1406 418.984L94.7566 419.784C94.4526 420.44 94.1486 420.68 93.3486 420.68H92.1486V421.72H93.1406Z" fill="#ACACAC"/> -->
<!-- <path d="M108.133 419.16C111.621 419.16 112.933 417.512 112.933 414.76V408.28H110.389V414.76C110.389 416.264 110.021 416.824 108.133 416.824C106.229 416.824 105.909 416.232 105.909 414.648V414.184H103.365V414.648C103.365 417.48 104.661 419.16 108.133 419.16ZM116.604 419.16C118.38 419.16 119.5 418.408 119.868 417.16H119.996V419H122.236V414.296C122.236 412.2 120.972 410.824 118.3 410.824C115.66 410.824 113.996 412.2 113.996 414.184V414.232H116.412V414.168C116.412 413.256 116.908 412.936 118.124 412.936C119.404 412.936 119.868 413.224 119.868 414.264V414.568L116.428 414.92C114.716 415.096 113.836 415.832 113.836 417.016C113.836 418.36 114.876 419.16 116.604 419.16ZM116.252 416.856C116.252 416.472 116.508 416.312 117.084 416.264L119.868 415.944C119.804 417.08 118.924 417.464 117.292 417.464C116.588 417.464 116.252 417.288 116.252 416.856ZM125.853 419V414.952C125.853 413.56 126.269 412.984 127.725 412.984C129.101 412.984 129.565 413.48 129.565 414.808V419H131.965V414.952C131.965 413.56 132.381 412.984 133.837 412.984C135.213 412.984 135.677 413.48 135.677 414.808V419H138.077V414.008C138.077 412.184 137.069 410.824 135.005 410.824C132.941 410.824 132.125 412.088 131.933 413.448H131.789C131.613 411.96 130.669 410.824 128.813 410.824C126.797 410.824 125.997 412.072 125.805 413.416H125.677V410.984H123.453V419H125.853ZM143.552 419.16C146.096 419.16 147.792 417.944 147.792 416.2V416.024H145.392V416.184C145.392 416.872 144.896 417.24 143.472 417.24C141.92 417.24 141.344 416.712 141.28 415.48H147.808C147.84 415.208 147.872 415 147.872 414.712C147.872 412.2 146.128 410.824 143.504 410.824C140.864 410.824 139.056 412.44 139.056 415C139.056 417.848 140.88 419.16 143.552 419.16ZM143.456 412.696C144.864 412.696 145.504 413.16 145.568 414.216H141.312C141.424 413.176 142.032 412.696 143.456 412.696ZM152.938 419.16C155.418 419.16 156.906 418.168 156.906 416.664C156.906 415.336 156.106 414.616 153.962 414.376L152.25 414.168C151.194 414.04 150.97 413.864 150.97 413.448C150.97 412.936 151.274 412.728 152.474 412.728C153.946 412.728 154.266 413.064 154.266 413.72V413.816H156.666V413.768C156.666 411.816 155.178 410.824 152.554 410.824C149.802 410.824 148.602 411.944 148.602 413.352C148.602 414.696 149.498 415.416 151.098 415.592L153.354 415.864C154.298 415.992 154.538 416.12 154.538 416.568C154.538 417.048 154.234 417.256 152.954 417.256C151.594 417.256 151.146 417.064 151.146 416.344V416.2H148.746V416.248C148.746 418.104 150.234 419.16 152.938 419.16ZM165.975 419L167.607 413.64L168.359 410.552H168.535L169.287 413.64L170.887 419H174.455L176.999 408.28H174.375L173.079 414.36L172.711 416.712H172.535L172.039 414.36L170.263 408.28H166.695L164.903 414.36L164.407 416.712H164.231L163.863 414.36L162.567 408.28H159.879L162.407 419H165.975ZM180.292 419.16C182.068 419.16 183.188 418.408 183.556 417.16H183.684V419H185.924V414.296C185.924 412.2 184.66 410.824 181.988 410.824C179.348 410.824 177.684 412.2 177.684 414.184V414.232H180.1V414.168C180.1 413.256 180.596 412.936 181.812 412.936C183.092 412.936 183.556 413.224 183.556 414.264V414.568L180.116 414.92C178.404 415.096 177.524 415.832 177.524 417.016C177.524 418.36 178.564 419.16 180.292 419.16ZM179.94 416.856C179.94 416.472 180.196 416.312 180.772 416.264L183.556 415.944C183.492 417.08 182.612 417.464 180.98 417.464C180.276 417.464 179.94 417.288 179.94 416.856ZM192.788 419V416.84H191.348C190.5 416.84 190.196 416.632 190.196 415.832V412.968H192.788V410.984H190.196V409.432H187.796V410.984H186.532V412.968H187.796V416.104C187.796 418.12 188.932 419 190.804 419H192.788ZM197.735 419.16C200.215 419.16 201.703 418.168 201.703 416.664C201.703 415.336 200.903 414.616 198.759 414.376L197.047 414.168C195.991 414.04 195.767 413.864 195.767 413.448C195.767 412.936 196.071 412.728 197.271 412.728C198.743 412.728 199.063 413.064 199.063 413.72V413.816H201.463V413.768C201.463 411.816 199.975 410.824 197.351 410.824C194.599 410.824 193.399 411.944 193.399 413.352C193.399 414.696 194.295 415.416 195.895 415.592L198.151 415.864C199.095 415.992 199.335 416.12 199.335 416.568C199.335 417.048 199.031 417.256 197.751 417.256C196.391 417.256 195.943 417.064 195.943 416.344V416.2H193.543V416.248C193.543 418.104 195.031 419.16 197.735 419.16ZM206.943 419.16C209.679 419.16 211.519 417.528 211.519 415C211.519 412.44 209.679 410.824 206.943 410.824C204.207 410.824 202.367 412.44 202.367 415C202.367 417.528 204.207 419.16 206.943 419.16ZM206.943 417.032C205.311 417.032 204.751 416.408 204.751 415C204.751 413.592 205.311 412.936 206.943 412.936C208.559 412.936 209.135 413.592 209.135 415C209.135 416.408 208.559 417.032 206.943 417.032ZM214.899 419V414.952C214.899 413.592 215.443 412.984 216.963 412.984C218.435 412.984 218.963 413.528 218.963 414.808V419H221.363V414.008C221.363 412.232 220.323 410.824 218.131 410.824C216.035 410.824 215.075 412.104 214.867 413.448H214.723V410.984H212.499V419H214.899Z" fill="#15BFFD"/> -->
<rect x="0.5" y="0.5" width="383" height="441" rx="15.5" stroke="url(#paint0_linear_1_563)" stroke-opacity="0.7"/>
<defs>
<linearGradient id="paint0_linear_1_563" x1="42.24" y1="41.6064" x2="312.369" y2="485.582" gradientUnits="userSpaceOnUse">
<stop stop-color="#15BFFD"/>
<stop offset="1" stop-color="#9C37FD"/>
</linearGradient>
</defs>
</svg>
